<svg width="30" height="30" viewBox="0 0 30 30" fill="none" xmlns="http://www.w3.org/2000/svg">
<path d="M12.9598 1.89657C14.1046 0.814102 15.8954 0.814102 17.0402 1.89657C17.7681 2.58484 18.794 2.85972 19.7685 2.62761C21.3012 2.26256 22.8521 3.15801 23.3023 4.66785C23.5886 5.62786 24.3395 6.37884 25.2996 6.66509C26.8094 7.11528 27.7048 8.66623 27.3398 10.1989C27.1077 11.1734 27.3826 12.1993 28.0708 12.9272C29.1533 14.072 29.1533 15.8629 28.0708 17.0076C27.3826 17.7355 27.1077 18.7614 27.3398 19.7359C27.7048 21.2686 26.8094 22.8195 25.2996 23.2697C24.3395 23.556 23.5886 24.307 23.3023 25.267C22.8521 26.7768 21.3012 27.6723 19.7685 27.3072C18.794 27.0751 17.7681 27.35 17.0402 28.0382C15.8954 29.1207 14.1046 29.1207 12.9598 28.0382C12.2319 27.35 11.206 27.0751 10.2315 27.3072C8.69883 27.6723 7.14787 26.7768 6.69768 25.267C6.41144 24.307 5.66045 23.556 4.70044 23.2697C3.1906 22.8195 2.29516 21.2686 2.6602 19.7359C2.89231 18.7614 2.61743 17.7355 1.92916 17.0076C0.846695 15.8629 0.846695 14.072 1.92916 12.9272C2.61743 12.1993 2.89231 11.1734 2.6602 10.1989C2.29516 8.66623 3.1906 7.11528 4.70044 6.66509C5.66045 6.37884 6.41144 5.62786 6.69768 4.66785C7.14787 3.15801 8.69883 2.26256 10.2315 2.62761C11.206 2.85972 12.2319 2.58484 12.9598 1.89657Z" fill="#F4A261"/>
<path fill-rule="evenodd" clip-rule="evenodd" d="M15 9C15.2273 9 15.4453 9.09031 15.6061 9.25105C15.7668 9.4118 15.8571 9.62981 15.8571 9.85714V14.1429H20.1429C20.3702 14.1429 20.5882 14.2332 20.7489 14.3939C20.9097 14.5547 21 14.7727 21 15C21 15.2273 20.9097 15.4453 20.7489 15.6061C20.5882 15.7668 20.3702 15.8571 20.1429 15.8571H15.8571V20.1429C15.8571 20.3702 15.7668 20.5882 15.6061 20.7489C15.4453 20.9097 15.2273 21 15 21C14.7727 21 14.5547 20.9097 14.3939 20.7489C14.2332 20.5882 14.1429 20.3702 14.1429 20.1429V15.8571H9.85714C9.62981 15.8571 9.4118 15.7668 9.25105 15.6061C9.09031 15.4453 9 15.2273 9 15C9 14.7727 9.09031 14.5547 9.25105 14.3939C9.4118 14.2332 9.62981 14.1429 9.85714 14.1429H14.1429V9.85714C14.1429 9.62981 14.2332 9.4118 14.3939 9.25105C14.5547 9.09031 14.7727 9 15 9Z" fill="white"/>
</svg>
